<?xml version="1.0" encoding="iso-8859-1"?>
<!-- Uploaded to: SVG Repo, www.svgrepo.com, Generator: SVG Repo Mixer Tools -->
<svg version="1.1" id="Layer_1" xmlns="http://www.w3.org/2000/svg" xmlns:xlink="http://www.w3.org/1999/xlink" 
	 viewBox="0 0 512 512" xml:space="preserve">
<path style="fill:#ACAAB1;" d="M291.258,350.27L39.91,98.922c-25.208-25.208-25.208-66.078,0-91.286l0,0l296.991,296.991"/>
<path style="fill:#D7D5D9;" d="M220.741,350.27L256,315.012l45.643-45.643L472.09,98.922c25.208-25.208,25.208-66.078,0-91.286l0,0
	L256,223.726l-45.643,45.643l-35.258,35.258L220.741,350.27z"/>
<path style="opacity:0.11;fill:#3E3B43;enable-background:new    ;" d="M220.741,350.27L256,315.012l45.643-45.643L472.09,98.922
	c25.208-25.208,25.208-66.078,0-91.286l0,0l-4.385,4.385c8.116,22.756,3.073,49.153-15.147,67.371L282.112,249.838l-45.643,45.643
	l-35.258,35.258L220.741,350.27z"/>
<path style="fill:#FF5023;" d="M201.473,323.895c-41.284-41.284-108.221-41.284-149.505,0s-41.284,108.221,0,149.505
	s108.221,41.284,149.505,0C242.758,432.116,242.758,365.181,201.473,323.895z M168.831,440.758
	c-23.257,23.257-60.963,23.257-84.22,0c-23.257-23.257-23.257-60.963,0-84.22s60.963-23.257,84.22,0
	C192.087,379.795,192.087,417.502,168.831,440.758z"/>
<circle style="fill:#ACAAB1;" cx="254.321" cy="267.444" r="10.619"/>
<path style="fill:#FF5023;" d="M460.032,323.895c-41.284-41.284-108.221-41.284-149.505,0s-41.284,108.221,0,149.505
	s108.221,41.284,149.505,0S501.316,365.181,460.032,323.895z M427.389,440.758c-23.257,23.257-60.963,23.257-84.22,0
	c-23.257-23.257-23.257-60.963,0-84.22c23.257-23.257,60.963-23.257,84.22,0C450.646,379.795,450.646,417.502,427.389,440.758z"/>
<g style="opacity:0.23;">
	<path style="fill:#891C00;" d="M460.032,324.309c-0.437-0.437-0.881-0.862-1.322-1.29c27.362,41.067,22.932,97.054-13.3,133.285
		c-40.848,40.848-106.804,41.273-148.182,1.29c3.817,5.728,8.246,11.167,13.3,16.221c41.284,41.284,108.221,41.284,149.505,0
		C501.316,432.529,501.316,365.593,460.032,324.309z"/>
</g>
<g style="opacity:0.23;">
	<path style="fill:#891C00;" d="M201.473,324.309c-0.437-0.437-0.881-0.862-1.322-1.29c27.362,41.067,22.932,97.054-13.3,133.285
		c-40.848,40.848-106.804,41.273-148.183,1.29c3.817,5.728,8.246,11.167,13.3,16.221c41.284,41.284,108.221,41.284,149.505,0
		C242.758,432.529,242.758,365.593,201.473,324.309z"/>
</g>
<rect x="254.673" y="289.086" transform="matrix(-0.7071 0.7071 -0.7071 -0.7071 701.9202 309.4859)" style="opacity:0.21;fill:#3E3B43;enable-background:new    ;" width="64.381" height="22.058"/>
<path d="M126.721,331.461c-17.946,0-34.819,6.989-47.509,19.679c-26.197,26.197-26.197,68.822,0,95.018
	c13.098,13.098,30.304,19.648,47.509,19.648s34.41-6.549,47.51-19.648c26.196-26.197,26.196-68.822,0-95.018
	C161.539,338.449,144.667,331.461,126.721,331.461z M163.432,435.36c-10.123,10.123-23.415,15.183-36.711,15.181
	c-13.293-0.001-26.591-5.062-36.711-15.181c-20.242-20.242-20.242-53.179,0-73.422c9.806-9.806,22.843-15.207,36.711-15.207
	s26.905,5.401,36.711,15.207C183.673,382.179,183.673,415.116,163.432,435.36z"/>
<path d="M385.28,285.297c-16.426,0-32.316,3.478-46.839,10.072l-25.999-25.999L477.49,104.32c28.144-28.144,28.144-73.94,0-102.084
	C476.057,0.804,474.115,0,472.09,0s-3.966,0.804-5.4,2.237L256,212.927L45.309,2.237C43.877,0.804,41.935,0,39.91,0
	c-2.025,0-3.967,0.804-5.399,2.237c-28.145,28.145-28.145,73.94,0,102.084l165.048,165.048l-26.042,26.042
	c-41.754-18.872-92.681-11.181-126.949,23.087c-44.196,44.196-44.196,116.108,0,160.304c21.41,21.41,49.875,33.2,80.152,33.2
	c30.278,0,58.743-11.791,80.152-33.2c34.268-34.268,41.957-85.194,23.087-126.949L256,325.809l26,26
	c-6.594,14.523-10.072,30.412-10.072,46.839c0,30.278,11.79,58.743,33.199,80.152c21.409,21.41,49.874,33.2,80.152,33.2
	c30.277,0,58.742-11.791,80.152-33.2c44.195-44.196,44.195-116.108,0-160.303C444.022,297.087,415.557,285.297,385.28,285.297z
	 M45.309,93.523C24.947,73.162,23.268,41.088,40.27,18.794l204.931,204.931l-34.845,34.845L45.309,93.523z M196.074,468.002
	c-18.525,18.525-43.156,28.728-69.354,28.728c-26.198,0-50.829-10.202-69.354-28.728c-38.241-38.241-38.241-100.466,0-138.707
	s100.465-38.241,138.707,0C234.315,367.536,234.315,429.76,196.074,468.002z M206.872,318.497
	c-5.982-5.982-12.475-11.147-19.335-15.51l73.849-73.849c0.004-0.004,0.009-0.008,0.014-0.012s0.008-0.009,0.013-0.014
	L471.73,18.794c17.003,22.293,15.323,54.367-5.038,74.729L296.249,263.965c-0.002,0.002-0.003,0.003-0.005,0.005
	c-0.002,0.002-0.003,0.003-0.005,0.005l-45.633,45.633c-0.002,0.002-0.003,0.003-0.005,0.005c-0.002,0.002-0.003,0.003-0.005,0.005
	l-28.213,28.213C218.019,330.972,212.854,324.479,206.872,318.497z M266.797,315.012l34.845-34.845l22.797,22.797
	c-6.904,4.409-13.38,9.599-19.313,15.531s-11.122,12.408-15.532,19.313L266.797,315.012z M454.633,468.002
	c-18.525,18.525-43.155,28.728-69.353,28.728c-26.199,0-50.83-10.202-69.353-28.728c-18.526-18.525-28.728-43.156-28.728-69.354
	c0-15.716,3.675-30.866,10.612-44.474c0.158-0.265,0.299-0.535,0.421-0.812c4.573-8.764,10.502-16.877,17.693-24.067
	c7.192-7.192,15.306-13.123,24.073-17.696c0.274-0.121,0.54-0.261,0.8-0.415c13.609-6.939,28.761-10.615,44.48-10.615
	c26.198,0,50.829,10.202,69.353,28.727C492.875,367.536,492.875,429.76,454.633,468.002z"/>
<path d="M385.279,331.461c-17.946,0-34.819,6.989-47.509,19.679s-19.679,29.562-19.679,47.51c0,17.946,6.989,34.819,19.679,47.509
	c13.1,13.1,30.303,19.649,47.51,19.648c17.202-0.001,34.411-6.551,47.509-19.648c12.69-12.69,19.679-29.562,19.679-47.509
	s-6.989-34.82-19.679-47.51C420.099,338.449,403.226,331.461,385.279,331.461z M421.989,435.36
	c-20.242,20.243-53.178,20.242-73.42,0c-9.807-9.806-15.208-22.843-15.208-36.711s5.401-26.905,15.208-36.711
	c9.806-9.806,22.843-15.207,36.71-15.207c13.868,0,26.906,5.401,36.711,15.207c9.807,9.806,15.208,22.843,15.208,36.711
	C437.197,412.515,431.796,425.554,421.989,435.36z"/>
<path d="M257.679,285.704c10.066,0,18.255-8.188,18.255-18.255c0-10.067-8.189-18.255-18.255-18.255
	c-10.066,0-18.255,8.188-18.255,18.255C239.424,277.516,247.613,285.704,257.679,285.704z M257.679,264.465
	c1.645,0,2.984,1.338,2.984,2.984s-1.338,2.984-2.984,2.984s-2.984-1.338-2.984-2.984S256.034,264.465,257.679,264.465z"/>
</svg>